<svg data-v-7f951220="" width="24" height="24" viewBox="0 0 24 24" xmlns="http://www.w3.org/2000/svg" fill="#111">
  <path fill-rule="evenodd" clip-rule="evenodd"
        d="M11.5001 4.25C11.7037 4.25 11.8986 4.33282 12.04 4.47942L15.5399 8.1093C15.8274 8.40748 15.8188 8.88228 15.5206 9.16979C15.2224 9.45729 14.7476 9.44864 14.4601 9.15046L12.2501 6.85837V16.1416L14.4601 13.8495C14.7476 13.5514 15.2224 13.5427 15.5206 13.8302C15.8188 14.1177 15.8274 14.5925 15.5399 14.8907L12.04 18.5206C11.8986 18.6672 11.7037 18.75 11.5001 18.75C11.2964 18.75 11.1015 18.6672 10.9602 18.5206L7.4601 14.8907C7.17259 14.5925 7.18124 14.1177 7.47941 13.8302C7.77759 13.5427 8.25238 13.5514 8.5399 13.8495L10.7501 16.1417V6.85833L8.5399 9.15047C8.25239 9.44864 7.77759 9.45729 7.47941 9.16978C7.18124 8.88226 7.17259 8.40747 7.4601 8.10929L10.9602 4.47941C11.1015 4.33281 11.2964 4.25 11.5001 4.25Z"></path>
</svg>
