<svg data-v-7f951220="" width="24" height="24" viewBox="0 0 24 24" xmlns="http://www.w3.org/2000/svg" fill="#111">
  <path fill-rule="evenodd" clip-rule="evenodd"
        d="M10.1698 7.47942C10.4573 7.7776 10.4486 8.2524 10.1505 8.53991L7.85837 10.7499H17.1416L14.8495 8.53991C14.5514 8.2524 14.5427 7.7776 14.8302 7.47942C15.1177 7.18124 15.5925 7.17259 15.8907 7.4601L19.5206 10.96C19.6672 11.1014 19.75 11.2963 19.75 11.4999C19.75 11.7036 19.6672 11.8985 19.5206 12.0398L15.8907 15.5399C15.5925 15.8274 15.1177 15.8188 14.8302 15.5206C14.5427 15.2224 14.5514 14.7476 14.8495 14.4601L17.1417 12.2499H7.85833L10.1505 14.4601C10.4486 14.7476 10.4573 15.2224 10.1698 15.5206C9.88226 15.8188 9.40747 15.8274 9.10929 15.5399L5.47941 12.0398C5.33281 11.8985 5.25 11.7036 5.25 11.4999C5.25 11.2963 5.33282 11.1014 5.47942 10.96L9.1093 7.4601C9.40748 7.17259 9.88228 7.18124 10.1698 7.47942Z"></path>
</svg>
