<svg width="24" height="24" viewBox="0 0 24 24" fill="none" xmlns="http://www.w3.org/2000/svg">
<path fill-rule="evenodd" clip-rule="evenodd" d="M17.9998 14.9999C17.7738 14.9999 17.5468 14.9239 17.3598 14.7679L11.9888 10.2919L6.62675 14.6069C6.19775 14.9539 5.56775 14.8859 5.22075 14.4549C4.87475 14.0249 4.94275 13.3959 5.37375 13.0489L11.3738 8.22092C11.7438 7.92192 12.2748 7.92592 12.6408 8.23192L18.6408 13.2319C19.0648 13.5849 19.1218 14.2159 18.7688 14.6399C18.5708 14.8769 18.2868 14.9999 17.9998 14.9999Z" fill="#8F9BB3"/>
<mask id="mask0_13713_263698" style="mask-type:luminance" maskUnits="userSpaceOnUse" x="5" y="7" width="14" height="8">
<path fill-rule="evenodd" clip-rule="evenodd" d="M17.9998 14.9999C17.7738 14.9999 17.5468 14.9239 17.3598 14.7679L11.9888 10.2919L6.62675 14.6069C6.19775 14.9539 5.56775 14.8859 5.22075 14.4549C4.87475 14.0249 4.94275 13.3959 5.37375 13.0489L11.3738 8.22092C11.7438 7.92192 12.2748 7.92592 12.6408 8.23192L18.6408 13.2319C19.0648 13.5849 19.1218 14.2159 18.7688 14.6399C18.5708 14.8769 18.2868 14.9999 17.9998 14.9999Z" fill="white"/>
</mask>
<g mask="url(#mask0_13713_263698)">
<rect width="24" height="24" fill="#8F9BB3"/>
</g>
</svg>
